<svg xmlns="http://www.w3.org/2000/svg" xmlns:xlink="http://www.w3.org/1999/xlink" xmlns:s="https://github.com/nturley/netlistsvg" width="804" height="314.5">
  <style>svg {
    stroke:#000;
    fill:none;
  }
  text {
    fill:#000;
    stroke:none;
    font-size:10px;
    font-weight: bold;
    font-family: "Courier New", monospace;
  }
  .nodelabel {
    text-anchor: middle;
  }
  .inputPortLabel {
    text-anchor: end;
  }
  .splitjoinBody {
    fill:#000;
  }</style>
  <g s:type="add" transform="translate(377,137)" s:width="25" s:height="25" id="cell_$add$7.v:24$4">
    <s:alias val="$add"/>
    <circle r="12.5" cx="12.5" cy="12.5" class="cell_$add$7.v:24$4"/>
    <line x1="7.5" x2="17.5" y1="12.5" y2="12.5" class="cell_$add$7.v:24$4"/>
    <line x1="12.5" x2="12.5" y1="7.5" y2="17.5" class="cell_$add$7.v:24$4"/>
    <g s:x="3" s:y="5" s:pid="A"/>
    <g s:x="3" s:y="20" s:pid="B"/>
    <g s:x="25" s:y="12.5" s:pid="Y"/>
  </g>
  <g s:type="add" transform="translate(563.6666666666666,199.5)" s:width="25" s:height="25" id="cell_$add$7.v:29$10">
    <s:alias val="$add"/>
    <circle r="12.5" cx="12.5" cy="12.5" class="cell_$add$7.v:29$10"/>
    <line x1="7.5" x2="17.5" y1="12.5" y2="12.5" class="cell_$add$7.v:29$10"/>
    <line x1="12.5" x2="12.5" y1="7.5" y2="17.5" class="cell_$add$7.v:29$10"/>
    <g s:x="3" s:y="5" s:pid="A"/>
    <g s:x="3" s:y="20" s:pid="B"/>
    <g s:x="25" s:y="12.5" s:pid="Y"/>
  </g>
  <g s:type="and" transform="translate(697,80)" s:width="30" s:height="25" id="cell_$and$7.v:25$8">
    <s:alias val="$and"/>
    <s:alias val="$logic_and"/>
    <s:alias val="$_AND_"/>
    <path d="M0,0 L0,25 L15,25 A15 12.5 0 0 0 15,0 Z" class="cell_$and$7.v:25$8"/>
    <g s:x="0" s:y="5" s:pid="A"/>
    <g s:x="0" s:y="20" s:pid="B"/>
    <g s:x="30" s:y="12.5" s:pid="Y"/>
  </g>
  <g s:type="generic" transform="translate(209,141.5)" s:width="30" s:height="40" id="cell_$neg$7.v:15$2">
    <text x="15" y="-4" class="nodelabel cell_$neg$7.v:15$2" s:attribute="ref">$neg</text>
    <rect width="30" height="20" s:generic="body" class="cell_$neg$7.v:15$2"/>
    <g transform="translate(0,10)" s:x="0" s:y="10" s:pid="in0" id="port_$neg$7.v:15$2~A">
      <text x="-3" y="-4" class="inputPortLabel cell_$neg$7.v:15$2">A</text>
    </g>
    <g transform="translate(30,10)" s:x="30" s:y="10" s:pid="out0" id="port_$neg$7.v:15$2~Y">
      <text x="5" y="-4" style="fill:#000; stroke:none" class="cell_$neg$7.v:15$2">Y</text>
    </g>
  </g>
  <g s:type="generic" transform="translate(209,54)" s:width="30" s:height="40" id="cell_$neg$7.v:20$3">
    <text x="15" y="-4" class="nodelabel cell_$neg$7.v:20$3" s:attribute="ref">$neg</text>
    <rect width="30" height="20" s:generic="body" class="cell_$neg$7.v:20$3"/>
    <g transform="translate(0,10)" s:x="0" s:y="10" s:pid="in0" id="port_$neg$7.v:20$3~A">
      <text x="-3" y="-4" class="inputPortLabel cell_$neg$7.v:20$3">A</text>
    </g>
    <g transform="translate(30,10)" s:x="30" s:y="10" s:pid="out0" id="port_$neg$7.v:20$3~Y">
      <text x="5" y="-4" style="fill:#000; stroke:none" class="cell_$neg$7.v:20$3">Y</text>
    </g>
  </g>
  <g s:type="not" transform="translate(630.5,14.5)" s:width="30" s:height="20" id="cell_$not$7.v:25$6">
    <s:alias val="$_NOT_"/>
    <s:alias val="$not"/>
    <s:alias val="$logic_not"/>
    <path d="M0,0 L0,20 L20,10 Z" class="cell_$not$7.v:25$6"/>
    <circle cx="23" cy="10" r="3" class="cell_$not$7.v:25$6"/>
    <g s:x="0" s:y="10" s:pid="A"/>
    <g s:x="25" s:y="10" s:pid="Y"/>
  </g>
  <g s:type="not" transform="translate(496,129.5)" s:width="30" s:height="20" id="cell_$not$7.v:29$9">
    <s:alias val="$_NOT_"/>
    <s:alias val="$not"/>
    <s:alias val="$logic_not"/>
    <path d="M0,0 L0,20 L20,10 Z" class="cell_$not$7.v:29$9"/>
    <circle cx="23" cy="10" r="3" class="cell_$not$7.v:29$9"/>
    <g s:x="0" s:y="10" s:pid="A"/>
    <g s:x="25" s:y="10" s:pid="Y"/>
  </g>
  <g s:type="mux" transform="translate(633.3333333333334,182)" s:width="20" s:height="40" id="cell_$procmux$12">
    <s:alias val="$pmux"/>
    <s:alias val="$mux"/>
    <s:alias val="$_MUX_"/>
    <path d="M0,0 L20,10 L20,30 L0,40 Z" class="cell_$procmux$12"/>
    <g s:x="0" s:y="10" s:pid="A"/>
    <g s:x="0" s:y="30" s:pid="B"/>
    <g s:x="10" s:y="35" s:pid="S"/>
    <g s:x="20" s:y="20" s:pid="Y"/>
  </g>
  <g s:type="mux" transform="translate(633.3333333333334,251.5)" s:width="20" s:height="40" id="cell_$procmux$15">
    <s:alias val="$pmux"/>
    <s:alias val="$mux"/>
    <s:alias val="$_MUX_"/>
    <path d="M0,0 L20,10 L20,30 L0,40 Z" class="cell_$procmux$15"/>
    <g s:x="0" s:y="10" s:pid="A"/>
    <g s:x="0" s:y="30" s:pid="B"/>
    <g s:x="10" s:y="35" s:pid="S"/>
    <g s:x="20" s:y="20" s:pid="Y"/>
  </g>
  <g s:type="mux" transform="translate(322,34.5)" s:width="20" s:height="40" id="cell_$procmux$18">
    <s:alias val="$pmux"/>
    <s:alias val="$mux"/>
    <s:alias val="$_MUX_"/>
    <path d="M0,0 L20,10 L20,30 L0,40 Z" class="cell_$procmux$18"/>
    <g s:x="0" s:y="10" s:pid="A"/>
    <g s:x="0" s:y="30" s:pid="B"/>
    <g s:x="10" s:y="35" s:pid="S"/>
    <g s:x="20" s:y="20" s:pid="Y"/>
  </g>
  <g s:type="mux" transform="translate(322,122)" s:width="20" s:height="40" id="cell_$procmux$21">
    <s:alias val="$pmux"/>
    <s:alias val="$mux"/>
    <s:alias val="$_MUX_"/>
    <path d="M0,0 L20,10 L20,30 L0,40 Z" class="cell_$procmux$21"/>
    <g s:x="0" s:y="10" s:pid="A"/>
    <g s:x="0" s:y="30" s:pid="B"/>
    <g s:x="10" s:y="35" s:pid="S"/>
    <g s:x="20" s:y="20" s:pid="Y"/>
  </g>
  <g s:type="reduce_xor" transform="translate(561,12)" s:width="33" s:height="25" id="cell_$xor$7.v:25$5">
    <s:alias val="$xor"/>
    <s:alias val="$reduce_xor"/>
    <s:alias val="$_XOR_"/>
    <path d="M3,0 A30 25 0 0 1 3,25 A30 25 0 0 0 33,12.5 A30 25 0 0 0 3,0" class="cell_$xor$7.v:25$5"/>
    <path d="M0,0 A30 25 0 0 1 0,25" class="cell_$xor$7.v:25$5"/>
    <g s:x="3" s:y="5" s:pid="A"/>
    <g s:x="3" s:y="20" s:pid="B"/>
    <g s:x="33" s:y="12.5" s:pid="Y"/>
  </g>
  <g s:type="reduce_xor" transform="translate(629,87.5)" s:width="33" s:height="25" id="cell_$xor$7.v:25$7">
    <s:alias val="$xor"/>
    <s:alias val="$reduce_xor"/>
    <s:alias val="$_XOR_"/>
    <path d="M3,0 A30 25 0 0 1 3,25 A30 25 0 0 0 33,12.5 A30 25 0 0 0 3,0" class="cell_$xor$7.v:25$7"/>
    <path d="M0,0 A30 25 0 0 1 0,25" class="cell_$xor$7.v:25$7"/>
    <g s:x="3" s:y="5" s:pid="A"/>
    <g s:x="3" s:y="20" s:pid="B"/>
    <g s:x="33" s:y="12.5" s:pid="Y"/>
  </g>
  <g s:type="inputExt" transform="translate(12,219.5)" s:width="30" s:height="20" id="cell_a">
    <text x="15" y="-4" class="nodelabel cell_a" s:attribute="ref">a</text>
    <s:alias val="$_inputExt_"/>
    <path d="M0,0 L0,20 L15,20 L30,10 L15,0 Z" class="cell_a"/>
    <g s:x="28" s:y="10" s:pid="Y"/>
  </g>
  <g s:type="inputExt" transform="translate(12,77.5)" s:width="30" s:height="20" id="cell_b">
    <text x="15" y="-4" class="nodelabel cell_b" s:attribute="ref">b</text>
    <s:alias val="$_inputExt_"/>
    <path d="M0,0 L0,20 L15,20 L30,10 L15,0 Z" class="cell_b"/>
    <g s:x="28" s:y="10" s:pid="Y"/>
  </g>
  <g s:type="outputExt" transform="translate(762,251.5)" s:width="30" s:height="20" id="cell_f">
    <text x="15" y="-4" class="nodelabel cell_f" s:attribute="ref">f</text>
    <s:alias val="$_outputExt_"/>
    <path d="M30,0 L30,20 L15,20 L0,10 L15,0 Z" class="cell_f"/>
    <g s:x="0" s:y="10" s:pid="A"/>
  </g>
  <g s:type="outputExt" transform="translate(762,82.5)" s:width="30" s:height="20" id="cell_of">
    <text x="15" y="-4" class="nodelabel cell_of" s:attribute="ref">of</text>
    <s:alias val="$_outputExt_"/>
    <path d="M30,0 L30,20 L15,20 L0,10 L15,0 Z" class="cell_of"/>
    <g s:x="0" s:y="10" s:pid="A"/>
  </g>
  <g s:type="constant" transform="translate(496,209.5)" s:width="30" s:height="20" id="cell_001">
    <text x="15" y="-4" class="nodelabel cell_001" s:attribute="ref">001</text>
    <s:alias val="$_constant_"/>
    <rect width="30" height="20" class="cell_001"/>
    <g s:x="30" s:y="10" s:pid="Y"/>
  </g>
  <g s:type="constant" transform="translate(77,152)" s:width="30" s:height="20" id="cell_0">
    <text x="15" y="-4" class="nodelabel cell_0" s:attribute="ref">0</text>
    <s:alias val="$_constant_"/>
    <rect width="30" height="20" class="cell_0"/>
    <g s:x="30" s:y="10" s:pid="Y"/>
  </g>
  <g s:type="constant" transform="translate(564,271.5)" s:width="30" s:height="20" id="cell_1">
    <text x="15" y="-4" class="nodelabel cell_1" s:attribute="ref">1</text>
    <s:alias val="$_constant_"/>
    <rect width="30" height="20" class="cell_1"/>
    <g s:x="30" s:y="10" s:pid="Y"/>
  </g>
  <g s:type="join" transform="translate(161,131.5)" s:width="4" s:height="40" id="cell_$join$,2,3,4,47,">
    <rect width="5" height="40" class="splitjoinBody" s:generic="body"/>
    <s:alias val="$_join_"/>
    <g s:x="5" s:y="20" s:pid="out"/>
    <g transform="translate(0,10)" s:x="0" s:y="10" s:pid="in0">
      <text x="-3" y="-4" class="inputPortLabel">0:2</text>
    </g>
    <g transform="translate(0,30)" s:x="0" s:y="10" s:pid="in0">
      <text x="-3" y="-4" class="inputPortLabel">3</text>
    </g>
  </g>
  <g s:type="join" transform="translate(161,44)" s:width="4" s:height="40" id="cell_$join$,6,7,8,47,">
    <rect width="5" height="40" class="splitjoinBody" s:generic="body"/>
    <s:alias val="$_join_"/>
    <g s:x="5" s:y="20" s:pid="out"/>
    <g transform="translate(0,10)" s:x="0" s:y="10" s:pid="in0">
      <text x="-3" y="-4" class="inputPortLabel">0:2</text>
    </g>
    <g transform="translate(0,30)" s:x="0" s:y="10" s:pid="in0">
      <text x="-3" y="-4" class="inputPortLabel">3</text>
    </g>
  </g>
  <g s:type="join" transform="translate(716,241)" s:width="4" s:height="40" id="cell_$join$,10,11,12,13,">
    <rect width="5" height="40" class="splitjoinBody" s:generic="body"/>
    <s:alias val="$_join_"/>
    <g s:x="5" s:y="20" s:pid="out"/>
    <g transform="translate(0,10)" s:x="0" s:y="10" s:pid="in0">
      <text x="-3" y="-4" class="inputPortLabel">0:2</text>
    </g>
    <g transform="translate(0,30)" s:x="0" s:y="10" s:pid="in0">
      <text x="-3" y="-4" class="inputPortLabel">3</text>
    </g>
  </g>
  <g s:type="split" transform="translate(83,209)" s:width="5" s:height="40" id="cell_$split$,2,3,4,5,">
    <rect width="5" height="40" class="splitjoinBody" s:generic="body"/>
    <s:alias val="$_split_"/>
    <g s:x="0" s:y="20" s:pid="in"/>
    <g transform="translate(4,10)" s:x="4" s:y="10" s:pid="out0">
      <text x="5" y="-4">0:2</text>
    </g>
    <g transform="translate(4,30)" s:x="4" s:y="10" s:pid="out0">
      <text x="5" y="-4">3</text>
    </g>
  </g>
  <g s:type="split" transform="translate(83,67)" s:width="5" s:height="40" id="cell_$split$,6,7,8,9,">
    <rect width="5" height="40" class="splitjoinBody" s:generic="body"/>
    <s:alias val="$_split_"/>
    <g s:x="0" s:y="20" s:pid="in"/>
    <g transform="translate(4,10)" s:x="4" s:y="10" s:pid="out0">
      <text x="5" y="-4">0:2</text>
    </g>
    <g transform="translate(4,30)" s:x="4" s:y="10" s:pid="out0">
      <text x="5" y="-4">3</text>
    </g>
  </g>
  <g s:type="split" transform="translate(437,129)" s:width="5" s:height="40" id="cell_$split$,23,24,25,26,">
    <rect width="5" height="40" class="splitjoinBody" s:generic="body"/>
    <s:alias val="$_split_"/>
    <g s:x="0" s:y="20" s:pid="in"/>
    <g transform="translate(4,10)" s:x="4" s:y="10" s:pid="out0">
      <text x="5" y="-4">0:2</text>
    </g>
    <g transform="translate(4,30)" s:x="4" s:y="10" s:pid="out0">
      <text x="5" y="-4">3</text>
    </g>
  </g>
  <g s:type="split" transform="translate(514,64.5)" s:width="5" s:height="40" id="cell_$split$,15,16,17,18,">
    <rect width="5" height="20" class="splitjoinBody" s:generic="body"/>
    <s:alias val="$_split_"/>
    <g s:x="0" s:y="20" s:pid="in"/>
    <g transform="translate(4,10)" s:x="4" s:y="10" s:pid="out0">
      <text x="5" y="-4">3</text>
    </g>
  </g>
  <g s:type="split" transform="translate(514,21.5)" s:width="5" s:height="40" id="cell_$split$,19,20,21,22,">
    <rect width="5" height="20" class="splitjoinBody" s:generic="body"/>
    <s:alias val="$_split_"/>
    <g s:x="0" s:y="20" s:pid="in"/>
    <g transform="translate(4,10)" s:x="4" s:y="10" s:pid="out0">
      <text x="5" y="-4">3</text>
    </g>
  </g>
  <line x1="342" x2="380" y1="142" y2="142" class="net_15,16,17,18"/>
  <line x1="342" x2="362" y1="142" y2="142" class="net_15,16,17,18"/>
  <line x1="362" x2="362" y1="142" y2="97.5" class="net_15,16,17,18"/>
  <line x1="362" x2="514.5" y1="97.5" y2="97.5" class="net_15,16,17,18"/>
  <circle cx="362" cy="142" r="2" style="fill:#000" class="net_15,16,17,18"/>
  <line x1="514.5" x2="514.5" y1="97.5" y2="85.5" class="net_15,16,17,18"/>
  <line x1="342" x2="352" y1="54.5" y2="54.5" class="net_19,20,21,22"/>
  <line x1="352" x2="352" y1="54.5" y2="157" class="net_19,20,21,22"/>
  <circle cx="352" cy="54.5" r="2" style="fill:#000" class="net_19,20,21,22"/>
  <line x1="352" x2="380" y1="157" y2="157" class="net_19,20,21,22"/>
  <line x1="342" x2="514.5" y1="54.5" y2="54.5" class="net_19,20,21,22"/>
  <line x1="514.5" x2="514.5" y1="54.5" y2="42.5" class="net_19,20,21,22"/>
  <line x1="521" x2="536" y1="139.5" y2="139.5" class="net_27,28,29"/>
  <line x1="536" x2="536" y1="139.5" y2="204.5" class="net_27,28,29"/>
  <line x1="536" x2="566.6666666666666" y1="204.5" y2="204.5" class="net_27,28,29"/>
  <line x1="526" x2="566.6666666666666" y1="219.5" y2="219.5" class="net_44,45,46"/>
  <line x1="655.5" x2="672" y1="24.5" y2="24.5" class="net_33"/>
  <line x1="672" x2="672" y1="24.5" y2="85" class="net_33"/>
  <line x1="672" x2="697" y1="85" y2="85" class="net_33"/>
  <line x1="662" x2="697" y1="100" y2="100" class="net_34"/>
  <line x1="167" x2="209" y1="152" y2="152" class="net_2,3,4,47"/>
  <line x1="167" x2="177" y1="152" y2="152" class="net_2,3,4,47"/>
  <line x1="177" x2="177" y1="152" y2="120.5" class="net_2,3,4,47"/>
  <line x1="177" x2="297" y1="120.5" y2="120.5" class="net_2,3,4,47"/>
  <line x1="297" x2="297" y1="120.5" y2="132" class="net_2,3,4,47"/>
  <circle cx="177" cy="152" r="2" style="fill:#000" class="net_2,3,4,47"/>
  <line x1="297" x2="322" y1="132" y2="132" class="net_2,3,4,47"/>
  <line x1="167" x2="209" y1="64.5" y2="64.5" class="net_6,7,8,47"/>
  <line x1="167" x2="177" y1="64.5" y2="64.5" class="net_6,7,8,47"/>
  <line x1="177" x2="177" y1="64.5" y2="33" class="net_6,7,8,47"/>
  <line x1="177" x2="297" y1="33" y2="33" class="net_6,7,8,47"/>
  <line x1="297" x2="297" y1="33" y2="44.5" class="net_6,7,8,47"/>
  <circle cx="177" cy="64.5" r="2" style="fill:#000" class="net_6,7,8,47"/>
  <line x1="297" x2="322" y1="44.5" y2="44.5" class="net_6,7,8,47"/>
  <line x1="594" x2="630.5" y1="24.5" y2="24.5" class="net_43"/>
  <line x1="442" x2="496" y1="139.5" y2="139.5" class="net_23,24,25"/>
  <line x1="442" x2="481" y1="139.5" y2="139.5" class="net_23,24,25"/>
  <line x1="481" x2="481" y1="139.5" y2="118.5" class="net_23,24,25"/>
  <line x1="481" x2="604" y1="118.5" y2="118.5" class="net_23,24,25"/>
  <line x1="604" x2="604" y1="118.5" y2="192" class="net_23,24,25"/>
  <circle cx="481" cy="139.5" r="2" style="fill:#000" class="net_23,24,25"/>
  <line x1="604" x2="633.3333333333334" y1="192" y2="192" class="net_23,24,25"/>
  <line x1="588.6666666666666" x2="633.3333333333334" y1="212" y2="212" class="net_30,31,32"/>
  <line x1="442" x2="471" y1="159.5" y2="159.5" class="net_26"/>
  <line x1="471" x2="471" y1="159.5" y2="239.5" class="net_26"/>
  <line x1="471" x2="643.3333333333334" y1="239.5" y2="239.5" class="net_26"/>
  <circle cx="471" cy="159.5" r="2" style="fill:#000" class="net_26"/>
  <circle cx="471" cy="239.5" r="2" style="fill:#000" class="net_26"/>
  <line x1="643.3333333333334" x2="643.3333333333334" y1="239.5" y2="217" class="net_26"/>
  <line x1="442" x2="471" y1="159.5" y2="159.5" class="net_26"/>
  <line x1="471" x2="471" y1="159.5" y2="301.5" class="net_26"/>
  <line x1="471" x2="643.3333333333334" y1="301.5" y2="301.5" class="net_26"/>
  <line x1="643.3333333333334" x2="643.3333333333334" y1="301.5" y2="286.5" class="net_26"/>
  <line x1="442" x2="471" y1="159.5" y2="159.5" class="net_26"/>
  <line x1="471" x2="471" y1="159.5" y2="107.5" class="net_26"/>
  <line x1="471" x2="632" y1="107.5" y2="107.5" class="net_26"/>
  <line x1="107" x2="127" y1="162" y2="162" class="net_47"/>
  <line x1="127" x2="127" y1="162" y2="250.5" class="net_47"/>
  <line x1="127" x2="604" y1="250.5" y2="250.5" class="net_47"/>
  <line x1="604" x2="604" y1="250.5" y2="261.5" class="net_47"/>
  <circle cx="127" cy="162" r="2" style="fill:#000" class="net_47"/>
  <line x1="604" x2="633.3333333333334" y1="261.5" y2="261.5" class="net_47"/>
  <line x1="107" x2="161" y1="162" y2="162" class="net_47"/>
  <line x1="107" x2="127" y1="162" y2="162" class="net_47"/>
  <line x1="127" x2="127" y1="162" y2="74.5" class="net_47"/>
  <line x1="127" x2="161" y1="74.5" y2="74.5" class="net_47"/>
  <line x1="594" x2="633.3333333333334" y1="281.5" y2="281.5" class="net_50"/>
  <line x1="240" x2="322" y1="64.5" y2="64.5" class="net_39,40,41,42"/>
  <line x1="88" x2="332" y1="97.5" y2="97.5" class="net_9"/>
  <line x1="332" x2="332" y1="97.5" y2="69.5" class="net_9"/>
  <line x1="240" x2="322" y1="152" y2="152" class="net_35,36,37,38"/>
  <line x1="88" x2="332" y1="239.5" y2="239.5" class="net_5"/>
  <line x1="332" x2="332" y1="239.5" y2="157" class="net_5"/>
  <line x1="519" x2="536" y1="75" y2="75" class="net_18"/>
  <line x1="536" x2="536" y1="75" y2="17" class="net_18"/>
  <circle cx="536" cy="75" r="2" style="fill:#000" class="net_18"/>
  <line x1="536" x2="564" y1="17" y2="17" class="net_18"/>
  <line x1="519" x2="604" y1="75" y2="75" class="net_18"/>
  <line x1="604" x2="604" y1="75" y2="92.5" class="net_18"/>
  <line x1="604" x2="632" y1="92.5" y2="92.5" class="net_18"/>
  <line x1="519" x2="564" y1="32" y2="32" class="net_22"/>
  <line x1="722" x2="762" y1="261.5" y2="261.5" class="net_10,11,12,13"/>
  <line x1="727" x2="762" y1="92.5" y2="92.5" class="net_14"/>
  <line x1="88" x2="117" y1="219.5" y2="219.5" class="net_2,3,4"/>
  <line x1="117" x2="117" y1="219.5" y2="142" class="net_2,3,4"/>
  <line x1="117" x2="161" y1="142" y2="142" class="net_2,3,4"/>
  <line x1="88" x2="117" y1="77.5" y2="77.5" class="net_6,7,8"/>
  <line x1="117" x2="117" y1="77.5" y2="54.5" class="net_6,7,8"/>
  <line x1="117" x2="161" y1="54.5" y2="54.5" class="net_6,7,8"/>
  <line x1="653.3333333333334" x2="672" y1="202" y2="202" class="net_10,11,12"/>
  <line x1="672" x2="672" y1="202" y2="251.5" class="net_10,11,12"/>
  <line x1="672" x2="716" y1="251.5" y2="251.5" class="net_10,11,12"/>
  <line x1="653.3333333333334" x2="716" y1="271.5" y2="271.5" class="net_13"/>
  <line x1="40" x2="83" y1="229.5" y2="229.5" class="net_2,3,4,5"/>
  <line x1="40" x2="83" y1="87.5" y2="87.5" class="net_6,7,8,9"/>
  <line x1="402" x2="437" y1="149.5" y2="149.5" class="net_23,24,25,26"/>
</svg>
