<svg xmlns="http://www.w3.org/2000/svg" xmlns:xlink="http://www.w3.org/1999/xlink" xmlns:s="https://github.com/nturley/netlistsvg" width="1894" height="478.5">
  <style>svg {
    stroke:#000;
    fill:none;
  }
  text {
    fill:#000;
    stroke:none;
    font-size:10px;
    font-weight: bold;
    font-family: "Courier New", monospace;
  }
  .nodelabel {
    text-anchor: middle;
  }
  .inputPortLabel {
    text-anchor: end;
  }
  .splitjoinBody {
    fill:#000;
  }</style>
  <g s:type="not" transform="translate(1763,122)" s:width="30" s:height="20" id="cell_$eq$divider.v:70$31">
    <s:alias val="$_NOT_"/>
    <s:alias val="$not"/>
    <s:alias val="$logic_not"/>
    <path d="M0,0 L0,20 L20,10 Z" class="cell_$eq$divider.v:70$31"/>
    <circle cx="23" cy="10" r="3" class="cell_$eq$divider.v:70$31"/>
    <g s:x="0" s:y="10" s:pid="A"/>
    <g s:x="25" s:y="10" s:pid="Y"/>
  </g>
  <g s:type="not" transform="translate(1698,143.5)" s:width="30" s:height="20" id="cell_$not$divider.v:98$32">
    <s:alias val="$_NOT_"/>
    <s:alias val="$not"/>
    <s:alias val="$logic_not"/>
    <path d="M0,0 L0,20 L20,10 Z" class="cell_$not$divider.v:98$32"/>
    <circle cx="23" cy="10" r="3" class="cell_$not$divider.v:98$32"/>
    <g s:x="0" s:y="10" s:pid="A"/>
    <g s:x="25" s:y="10" s:pid="Y"/>
  </g>
  <g s:type="not" transform="translate(1698,198.5)" s:width="30" s:height="20" id="cell_$not$divider.v:98$33">
    <s:alias val="$_NOT_"/>
    <s:alias val="$not"/>
    <s:alias val="$logic_not"/>
    <path d="M0,0 L0,20 L20,10 Z" class="cell_$not$divider.v:98$33"/>
    <circle cx="23" cy="10" r="3" class="cell_$not$divider.v:98$33"/>
    <g s:x="0" s:y="10" s:pid="A"/>
    <g s:x="25" s:y="10" s:pid="Y"/>
  </g>
  <g s:type="not" transform="translate(1698,370.5)" s:width="30" s:height="20" id="cell_$not$divider.v:98$34">
    <s:alias val="$_NOT_"/>
    <s:alias val="$not"/>
    <s:alias val="$logic_not"/>
    <path d="M0,0 L0,20 L20,10 Z" class="cell_$not$divider.v:98$34"/>
    <circle cx="23" cy="10" r="3" class="cell_$not$divider.v:98$34"/>
    <g s:x="0" s:y="10" s:pid="A"/>
    <g s:x="25" s:y="10" s:pid="Y"/>
  </g>
  <g s:type="not" transform="translate(1698,433)" s:width="30" s:height="20" id="cell_$not$divider.v:98$35">
    <s:alias val="$_NOT_"/>
    <s:alias val="$not"/>
    <s:alias val="$logic_not"/>
    <path d="M0,0 L0,20 L20,10 Z" class="cell_$not$divider.v:98$35"/>
    <circle cx="23" cy="10" r="3" class="cell_$not$divider.v:98$35"/>
    <g s:x="0" s:y="10" s:pid="A"/>
    <g s:x="25" s:y="10" s:pid="Y"/>
  </g>
  <g s:type="generic" transform="translate(327,370)" s:width="30" s:height="40" id="cell_csub_init">
    <text x="15" y="-4" class="nodelabel cell_csub_init" s:attribute="ref">$paramod\conditional_subtractor\n_bits=s32'00000000000000000000000000000100</text>
    <rect width="30" height="60" s:generic="body" class="cell_csub_init"/>
    <g transform="translate(0,10)" s:x="0" s:y="10" s:pid="in0" id="port_csub_init~a">
      <text x="-3" y="-4" class="inputPortLabel cell_csub_init">a</text>
    </g>
    <g transform="translate(0,30)" s:x="0" s:y="10" s:pid="in0" id="port_csub_init~b">
      <text x="-3" y="-4" class="inputPortLabel cell_csub_init">b</text>
    </g>
    <g transform="translate(0,50)" s:x="0" s:y="10" s:pid="in0" id="port_csub_init~initial_borrow">
      <text x="-3" y="-4" class="inputPortLabel cell_csub_init">initial_borrow</text>
    </g>
    <g transform="translate(30,10)" s:x="30" s:y="10" s:pid="out0" id="port_csub_init~intermediate_borrows">
      <text x="5" y="-4" style="fill:#000; stroke:none" class="cell_csub_init">intermediate_borrows</text>
    </g>
    <g transform="translate(30,30)" s:x="30" s:y="10" s:pid="out0" id="port_csub_init~result">
      <text x="5" y="-4" style="fill:#000; stroke:none" class="cell_csub_init">result</text>
    </g>
  </g>
  <g s:type="generic" transform="translate(706,392.5)" s:width="30" s:height="40" id="cell_gen_csubs[1].csub">
    <text x="15" y="-4" class="nodelabel cell_gen_csubs[1].csub" s:attribute="ref">$paramod\conditional_subtractor\n_bits=s32'00000000000000000000000000000100</text>
    <rect width="30" height="60" s:generic="body" class="cell_gen_csubs[1].csub"/>
    <g transform="translate(0,10)" s:x="0" s:y="10" s:pid="in0" id="port_gen_csubs[1].csub~a">
      <text x="-3" y="-4" class="inputPortLabel cell_gen_csubs[1].csub">a</text>
    </g>
    <g transform="translate(0,30)" s:x="0" s:y="10" s:pid="in0" id="port_gen_csubs[1].csub~b">
      <text x="-3" y="-4" class="inputPortLabel cell_gen_csubs[1].csub">b</text>
    </g>
    <g transform="translate(0,50)" s:x="0" s:y="10" s:pid="in0" id="port_gen_csubs[1].csub~initial_borrow">
      <text x="-3" y="-4" class="inputPortLabel cell_gen_csubs[1].csub">initial_borrow</text>
    </g>
    <g transform="translate(30,10)" s:x="30" s:y="10" s:pid="out0" id="port_gen_csubs[1].csub~intermediate_borrows">
      <text x="5" y="-4" style="fill:#000; stroke:none" class="cell_gen_csubs[1].csub">intermediate_borrows</text>
    </g>
    <g transform="translate(30,30)" s:x="30" s:y="10" s:pid="out0" id="port_gen_csubs[1].csub~result">
      <text x="5" y="-4" style="fill:#000; stroke:none" class="cell_gen_csubs[1].csub">result</text>
    </g>
  </g>
  <g s:type="generic" transform="translate(1085,220.5)" s:width="30" s:height="40" id="cell_gen_csubs[2].csub">
    <text x="15" y="-4" class="nodelabel cell_gen_csubs[2].csub" s:attribute="ref">$paramod\conditional_subtractor\n_bits=s32'00000000000000000000000000000100</text>
    <rect width="30" height="60" s:generic="body" class="cell_gen_csubs[2].csub"/>
    <g transform="translate(0,10)" s:x="0" s:y="10" s:pid="in0" id="port_gen_csubs[2].csub~a">
      <text x="-3" y="-4" class="inputPortLabel cell_gen_csubs[2].csub">a</text>
    </g>
    <g transform="translate(0,30)" s:x="0" s:y="10" s:pid="in0" id="port_gen_csubs[2].csub~b">
      <text x="-3" y="-4" class="inputPortLabel cell_gen_csubs[2].csub">b</text>
    </g>
    <g transform="translate(0,50)" s:x="0" s:y="10" s:pid="in0" id="port_gen_csubs[2].csub~initial_borrow">
      <text x="-3" y="-4" class="inputPortLabel cell_gen_csubs[2].csub">initial_borrow</text>
    </g>
    <g transform="translate(30,10)" s:x="30" s:y="10" s:pid="out0" id="port_gen_csubs[2].csub~intermediate_borrows">
      <text x="5" y="-4" style="fill:#000; stroke:none" class="cell_gen_csubs[2].csub">intermediate_borrows</text>
    </g>
    <g transform="translate(30,30)" s:x="30" s:y="10" s:pid="out0" id="port_gen_csubs[2].csub~result">
      <text x="5" y="-4" style="fill:#000; stroke:none" class="cell_gen_csubs[2].csub">result</text>
    </g>
  </g>
  <g s:type="generic" transform="translate(1464,36.5)" s:width="30" s:height="40" id="cell_gen_csubs[3].csub">
    <text x="15" y="-4" class="nodelabel cell_gen_csubs[3].csub" s:attribute="ref">$paramod\conditional_subtractor\n_bits=s32'00000000000000000000000000000100</text>
    <rect width="30" height="60" s:generic="body" class="cell_gen_csubs[3].csub"/>
    <g transform="translate(0,10)" s:x="0" s:y="10" s:pid="in0" id="port_gen_csubs[3].csub~a">
      <text x="-3" y="-4" class="inputPortLabel cell_gen_csubs[3].csub">a</text>
    </g>
    <g transform="translate(0,30)" s:x="0" s:y="10" s:pid="in0" id="port_gen_csubs[3].csub~b">
      <text x="-3" y="-4" class="inputPortLabel cell_gen_csubs[3].csub">b</text>
    </g>
    <g transform="translate(0,50)" s:x="0" s:y="10" s:pid="in0" id="port_gen_csubs[3].csub~initial_borrow">
      <text x="-3" y="-4" class="inputPortLabel cell_gen_csubs[3].csub">initial_borrow</text>
    </g>
    <g transform="translate(30,10)" s:x="30" s:y="10" s:pid="out0" id="port_gen_csubs[3].csub~intermediate_borrows">
      <text x="5" y="-4" style="fill:#000; stroke:none" class="cell_gen_csubs[3].csub">intermediate_borrows</text>
    </g>
    <g transform="translate(30,30)" s:x="30" s:y="10" s:pid="out0" id="port_gen_csubs[3].csub~result">
      <text x="5" y="-4" style="fill:#000; stroke:none" class="cell_gen_csubs[3].csub">result</text>
    </g>
  </g>
  <g s:type="inputExt" transform="translate(12,262)" s:width="30" s:height="20" id="cell_dividend">
    <text x="15" y="-4" class="nodelabel cell_dividend" s:attribute="ref">dividend</text>
    <s:alias val="$_inputExt_"/>
    <path d="M0,0 L0,20 L15,20 L30,10 L15,0 Z" class="cell_dividend"/>
    <g s:x="28" s:y="10" s:pid="Y"/>
  </g>
  <g s:type="inputExt" transform="translate(165,240)" s:width="30" s:height="20" id="cell_divisor">
    <text x="15" y="-4" class="nodelabel cell_divisor" s:attribute="ref">divisor</text>
    <s:alias val="$_inputExt_"/>
    <path d="M0,0 L0,20 L15,20 L30,10 L15,0 Z" class="cell_divisor"/>
    <g s:x="28" s:y="10" s:pid="Y"/>
  </g>
  <g s:type="outputExt" transform="translate(1828,340.5)" s:width="30" s:height="20" id="cell_quotient">
    <text x="15" y="-4" class="nodelabel cell_quotient" s:attribute="ref">quotient</text>
    <s:alias val="$_outputExt_"/>
    <path d="M30,0 L30,20 L15,20 L0,10 L15,0 Z" class="cell_quotient"/>
    <g s:x="0" s:y="10" s:pid="A"/>
  </g>
  <g s:type="outputExt" transform="translate(1828,57)" s:width="30" s:height="20" id="cell_remainder">
    <text x="15" y="-4" class="nodelabel cell_remainder" s:attribute="ref">remainder</text>
    <s:alias val="$_outputExt_"/>
    <path d="M30,0 L30,20 L15,20 L0,10 L15,0 Z" class="cell_remainder"/>
    <g s:x="0" s:y="10" s:pid="A"/>
  </g>
  <g s:type="outputExt" transform="translate(1828,122)" s:width="30" s:height="20" id="cell_zero_flag">
    <text x="15" y="-4" class="nodelabel cell_zero_flag" s:attribute="ref">zero_flag</text>
    <s:alias val="$_outputExt_"/>
    <path d="M30,0 L30,20 L15,20 L0,10 L15,0 Z" class="cell_zero_flag"/>
    <g s:x="0" s:y="10" s:pid="A"/>
  </g>
  <g s:type="constant" transform="translate(95,380.5)" s:width="30" s:height="20" id="cell_000">
    <text x="15" y="-4" class="nodelabel cell_000" s:attribute="ref">000</text>
    <s:alias val="$_constant_"/>
    <rect width="30" height="20" class="cell_000"/>
    <g s:x="30" s:y="10" s:pid="Y"/>
  </g>
  <g s:type="constant" transform="translate(165,303)" s:width="30" s:height="20" id="cell_0">
    <text x="15" y="-4" class="nodelabel cell_0" s:attribute="ref">0</text>
    <s:alias val="$_constant_"/>
    <rect width="30" height="20" class="cell_0"/>
    <g s:x="30" s:y="10" s:pid="Y"/>
  </g>
  <g s:type="join" transform="translate(180,360)" s:width="4" s:height="40" id="cell_$join$,5,47,48,49,">
    <rect width="5" height="40" class="splitjoinBody" s:generic="body"/>
    <s:alias val="$_join_"/>
    <g s:x="5" s:y="20" s:pid="out"/>
    <g transform="translate(0,10)" s:x="0" s:y="10" s:pid="in0">
      <text x="-3" y="-4" class="inputPortLabel">0</text>
    </g>
    <g transform="translate(0,30)" s:x="0" s:y="10" s:pid="in0">
      <text x="-3" y="-4" class="inputPortLabel">1:3</text>
    </g>
  </g>
  <g s:type="join" transform="translate(580,286)" s:width="4" s:height="40" id="cell_$join$,4,26,27,28,">
    <rect width="5" height="40" class="splitjoinBody" s:generic="body"/>
    <s:alias val="$_join_"/>
    <g s:x="5" s:y="20" s:pid="out"/>
    <g transform="translate(0,10)" s:x="0" s:y="10" s:pid="in0">
      <text x="-3" y="-4" class="inputPortLabel">0</text>
    </g>
    <g transform="translate(0,30)" s:x="0" s:y="10" s:pid="in0">
      <text x="-3" y="-4" class="inputPortLabel">1:3</text>
    </g>
  </g>
  <g s:type="join" transform="translate(959,197)" s:width="4" s:height="40" id="cell_$join$,3,33,34,35,">
    <rect width="5" height="40" class="splitjoinBody" s:generic="body"/>
    <s:alias val="$_join_"/>
    <g s:x="5" s:y="20" s:pid="out"/>
    <g transform="translate(0,10)" s:x="0" s:y="10" s:pid="in0">
      <text x="-3" y="-4" class="inputPortLabel">0</text>
    </g>
    <g transform="translate(0,30)" s:x="0" s:y="10" s:pid="in0">
      <text x="-3" y="-4" class="inputPortLabel">1:3</text>
    </g>
  </g>
  <g s:type="join" transform="translate(1338,14)" s:width="4" s:height="40" id="cell_$join$,2,40,41,42,">
    <rect width="5" height="40" class="splitjoinBody" s:generic="body"/>
    <s:alias val="$_join_"/>
    <g s:x="5" s:y="20" s:pid="out"/>
    <g transform="translate(0,10)" s:x="0" s:y="10" s:pid="in0">
      <text x="-3" y="-4" class="inputPortLabel">0</text>
    </g>
    <g transform="translate(0,30)" s:x="0" s:y="10" s:pid="in0">
      <text x="-3" y="-4" class="inputPortLabel">1:3</text>
    </g>
  </g>
  <g s:type="join" transform="translate(1773,330)" s:width="4" s:height="40" id="cell_$join$,10,11,12,13,">
    <rect width="5" height="80" class="splitjoinBody" s:generic="body"/>
    <s:alias val="$_join_"/>
    <g s:x="5" s:y="20" s:pid="out"/>
    <g transform="translate(0,10)" s:x="0" s:y="10" s:pid="in0">
      <text x="-3" y="-4" class="inputPortLabel">0</text>
    </g>
    <g transform="translate(0,30)" s:x="0" s:y="10" s:pid="in0">
      <text x="-3" y="-4" class="inputPortLabel">1</text>
    </g>
    <g transform="translate(0,50)" s:x="0" s:y="10" s:pid="in0">
      <text x="-3" y="-4" class="inputPortLabel">2</text>
    </g>
    <g transform="translate(0,70)" s:x="0" s:y="10" s:pid="in0">
      <text x="-3" y="-4" class="inputPortLabel">3</text>
    </g>
  </g>
  <g s:type="split" transform="translate(1651,143)" s:width="5" s:height="40" id="cell_$split$,44,45,46,19,">
    <rect width="5" height="20" class="splitjoinBody" s:generic="body"/>
    <s:alias val="$_split_"/>
    <g s:x="0" s:y="20" s:pid="in"/>
    <g transform="translate(4,10)" s:x="4" s:y="10" s:pid="out0">
      <text x="5" y="-4">3</text>
    </g>
  </g>
  <g s:type="split" transform="translate(1651,198)" s:width="5" s:height="40" id="cell_$split$,37,38,39,20,">
    <rect width="5" height="20" class="splitjoinBody" s:generic="body"/>
    <s:alias val="$_split_"/>
    <g s:x="0" s:y="20" s:pid="in"/>
    <g transform="translate(4,10)" s:x="4" s:y="10" s:pid="out0">
      <text x="5" y="-4">3</text>
    </g>
  </g>
  <g s:type="split" transform="translate(1651,370)" s:width="5" s:height="40" id="cell_$split$,30,31,32,21,">
    <rect width="5" height="20" class="splitjoinBody" s:generic="body"/>
    <s:alias val="$_split_"/>
    <g s:x="0" s:y="20" s:pid="in"/>
    <g transform="translate(4,10)" s:x="4" s:y="10" s:pid="out0">
      <text x="5" y="-4">3</text>
    </g>
  </g>
  <g s:type="split" transform="translate(1651,432.5)" s:width="5" s:height="40" id="cell_$split$,23,24,25,22,">
    <rect width="5" height="20" class="splitjoinBody" s:generic="body"/>
    <s:alias val="$_split_"/>
    <g s:x="0" s:y="20" s:pid="in"/>
    <g transform="translate(4,10)" s:x="4" s:y="10" s:pid="out0">
      <text x="5" y="-4">3</text>
    </g>
  </g>
  <g s:type="split" transform="translate(110.8,251.5)" s:width="5" s:height="40" id="cell_$split$,2,3,4,5,">
    <rect width="5" height="80" class="splitjoinBody" s:generic="body"/>
    <s:alias val="$_split_"/>
    <g s:x="0" s:y="20" s:pid="in"/>
    <g transform="translate(4,10)" s:x="4" s:y="10" s:pid="out0">
      <text x="5" y="-4">3</text>
    </g>
    <g transform="translate(4,30)" s:x="4" s:y="10" s:pid="out0">
      <text x="5" y="-4">2</text>
    </g>
    <g transform="translate(4,50)" s:x="4" s:y="10" s:pid="out0">
      <text x="5" y="-4">1</text>
    </g>
    <g transform="translate(4,70)" s:x="4" s:y="10" s:pid="out0">
      <text x="5" y="-4">0</text>
    </g>
  </g>
  <g s:type="split" transform="translate(514,306)" s:width="5" s:height="40" id="cell_$split$,26,27,28,29,">
    <rect width="5" height="20" class="splitjoinBody" s:generic="body"/>
    <s:alias val="$_split_"/>
    <g s:x="0" s:y="20" s:pid="in"/>
    <g transform="translate(4,10)" s:x="4" s:y="10" s:pid="out0">
      <text x="5" y="-4">0:2</text>
    </g>
  </g>
  <g s:type="split" transform="translate(893,217)" s:width="5" s:height="40" id="cell_$split$,33,34,35,36,">
    <rect width="5" height="20" class="splitjoinBody" s:generic="body"/>
    <s:alias val="$_split_"/>
    <g s:x="0" s:y="20" s:pid="in"/>
    <g transform="translate(4,10)" s:x="4" s:y="10" s:pid="out0">
      <text x="5" y="-4">0:2</text>
    </g>
  </g>
  <g s:type="split" transform="translate(1272,34)" s:width="5" s:height="40" id="cell_$split$,40,41,42,43,">
    <rect width="5" height="20" class="splitjoinBody" s:generic="body"/>
    <s:alias val="$_split_"/>
    <g s:x="0" s:y="20" s:pid="in"/>
    <g transform="translate(4,10)" s:x="4" s:y="10" s:pid="out0">
      <text x="5" y="-4">0:2</text>
    </g>
  </g>
  <line x1="193" x2="227" y1="250" y2="250" class="net_6,7,8,9"/>
  <line x1="227" x2="227" y1="250" y2="132" class="net_6,7,8,9"/>
  <circle cx="227" cy="250" r="2" style="fill:#000" class="net_6,7,8,9"/>
  <circle cx="227" cy="132" r="2" style="fill:#000" class="net_6,7,8,9"/>
  <line x1="227" x2="1763" y1="132" y2="132" class="net_6,7,8,9"/>
  <line x1="193" x2="227" y1="250" y2="250" class="net_6,7,8,9"/>
  <line x1="227" x2="227" y1="250" y2="400.5" class="net_6,7,8,9"/>
  <line x1="227" x2="327" y1="400.5" y2="400.5" class="net_6,7,8,9"/>
  <line x1="193" x2="227" y1="250" y2="250" class="net_6,7,8,9"/>
  <line x1="227" x2="227" y1="250" y2="349" class="net_6,7,8,9"/>
  <line x1="227" x2="596" y1="349" y2="349" class="net_6,7,8,9"/>
  <line x1="596" x2="596" y1="349" y2="423" class="net_6,7,8,9"/>
  <circle cx="227" cy="349" r="2" style="fill:#000" class="net_6,7,8,9"/>
  <line x1="596" x2="706" y1="423" y2="423" class="net_6,7,8,9"/>
  <line x1="193" x2="975" y1="250" y2="250" class="net_6,7,8,9"/>
  <line x1="975" x2="975" y1="250" y2="251" class="net_6,7,8,9"/>
  <line x1="975" x2="1085" y1="251" y2="251" class="net_6,7,8,9"/>
  <line x1="193" x2="227" y1="250" y2="250" class="net_6,7,8,9"/>
  <line x1="227" x2="227" y1="250" y2="67" class="net_6,7,8,9"/>
  <line x1="227" x2="1464" y1="67" y2="67" class="net_6,7,8,9"/>
  <line x1="1656" x2="1698" y1="153.5" y2="153.5" class="net_19"/>
  <line x1="1656" x2="1698" y1="208.5" y2="208.5" class="net_20"/>
  <line x1="1656" x2="1698" y1="380.5" y2="380.5" class="net_21"/>
  <line x1="1656" x2="1698" y1="443" y2="443" class="net_22"/>
  <line x1="186" x2="327" y1="380.5" y2="380.5" class="net_5,47,48,49"/>
  <line x1="195" x2="217" y1="313" y2="313" class="net_50"/>
  <line x1="217" x2="217" y1="313" y2="420.5" class="net_50"/>
  <circle cx="217" cy="313" r="2" style="fill:#000" class="net_50"/>
  <circle cx="217" cy="420.5" r="2" style="fill:#000" class="net_50"/>
  <line x1="217" x2="327" y1="420.5" y2="420.5" class="net_50"/>
  <line x1="195" x2="217" y1="313" y2="313" class="net_50"/>
  <line x1="217" x2="217" y1="313" y2="443" class="net_50"/>
  <line x1="217" x2="706" y1="443" y2="443" class="net_50"/>
  <line x1="195" x2="217" y1="313" y2="313" class="net_50"/>
  <line x1="217" x2="217" y1="313" y2="271" class="net_50"/>
  <circle cx="217" cy="271" r="2" style="fill:#000" class="net_50"/>
  <line x1="217" x2="1085" y1="271" y2="271" class="net_50"/>
  <line x1="195" x2="217" y1="313" y2="313" class="net_50"/>
  <line x1="217" x2="217" y1="313" y2="87" class="net_50"/>
  <line x1="217" x2="1464" y1="87" y2="87" class="net_50"/>
  <line x1="586" x2="606" y1="306.5" y2="306.5" class="net_4,26,27,28"/>
  <line x1="606" x2="606" y1="306.5" y2="403" class="net_4,26,27,28"/>
  <line x1="606" x2="706" y1="403" y2="403" class="net_4,26,27,28"/>
  <line x1="965" x2="975" y1="217.5" y2="217.5" class="net_3,33,34,35"/>
  <line x1="975" x2="975" y1="217.5" y2="231" class="net_3,33,34,35"/>
  <line x1="975" x2="1085" y1="231" y2="231" class="net_3,33,34,35"/>
  <line x1="1344" x2="1354" y1="34.5" y2="34.5" class="net_2,40,41,42"/>
  <line x1="1354" x2="1354" y1="34.5" y2="47" class="net_2,40,41,42"/>
  <line x1="1354" x2="1464" y1="47" y2="47" class="net_2,40,41,42"/>
  <line x1="1779" x2="1828" y1="350.5" y2="350.5" class="net_10,11,12,13"/>
  <line x1="1495" x2="1828" y1="67" y2="67" class="net_14,15,16,17"/>
  <line x1="1788" x2="1828" y1="132" y2="132" class="net_18"/>
  <line x1="115.8" x2="155" y1="262" y2="262" class="net_5"/>
  <line x1="155" x2="155" y1="262" y2="370.5" class="net_5"/>
  <line x1="155" x2="180" y1="370.5" y2="370.5" class="net_5"/>
  <line x1="125" x2="180" y1="390.5" y2="390.5" class="net_47,48,49"/>
  <line x1="115.8" x2="548" y1="282" y2="282" class="net_4"/>
  <line x1="548" x2="548" y1="282" y2="296.5" class="net_4"/>
  <line x1="548" x2="580" y1="296.5" y2="296.5" class="net_4"/>
  <line x1="519" x2="580" y1="316.5" y2="316.5" class="net_26,27,28"/>
  <line x1="115.8" x2="145" y1="302" y2="302" class="net_3"/>
  <line x1="145" x2="145" y1="302" y2="206" class="net_3"/>
  <line x1="145" x2="927" y1="206" y2="206" class="net_3"/>
  <line x1="927" x2="927" y1="206" y2="207.5" class="net_3"/>
  <line x1="927" x2="959" y1="207.5" y2="207.5" class="net_3"/>
  <line x1="898" x2="959" y1="227.5" y2="227.5" class="net_33,34,35"/>
  <line x1="115.8" x2="135" y1="322" y2="322" class="net_2"/>
  <line x1="135" x2="135" y1="322" y2="23" class="net_2"/>
  <line x1="135" x2="1306" y1="23" y2="23" class="net_2"/>
  <line x1="1306" x2="1306" y1="23" y2="24.5" class="net_2"/>
  <line x1="1306" x2="1338" y1="24.5" y2="24.5" class="net_2"/>
  <line x1="1277" x2="1338" y1="44.5" y2="44.5" class="net_40,41,42"/>
  <line x1="1723" x2="1748" y1="153.5" y2="153.5" class="net_10"/>
  <line x1="1748" x2="1748" y1="153.5" y2="340.5" class="net_10"/>
  <line x1="1748" x2="1773" y1="340.5" y2="340.5" class="net_10"/>
  <line x1="1723" x2="1738" y1="208.5" y2="208.5" class="net_11"/>
  <line x1="1738" x2="1738" y1="208.5" y2="360.5" class="net_11"/>
  <line x1="1738" x2="1773" y1="360.5" y2="360.5" class="net_11"/>
  <line x1="1723" x2="1773" y1="380.5" y2="380.5" class="net_12"/>
  <line x1="1723" x2="1773.5" y1="443" y2="443" class="net_13"/>
  <line x1="1773.5" x2="1773.5" y1="443" y2="401" class="net_13"/>
  <line x1="1495" x2="1626" y1="47" y2="47" class="net_44,45,46,19"/>
  <line x1="1626" x2="1626" y1="47" y2="176" class="net_44,45,46,19"/>
  <line x1="1626" x2="1651.5" y1="176" y2="176" class="net_44,45,46,19"/>
  <line x1="1651.5" x2="1651.5" y1="176" y2="164" class="net_44,45,46,19"/>
  <line x1="1116" x2="1651.5" y1="231" y2="231" class="net_37,38,39,20"/>
  <line x1="1651.5" x2="1651.5" y1="231" y2="219" class="net_37,38,39,20"/>
  <line x1="737" x2="1651.5" y1="403" y2="403" class="net_30,31,32,21"/>
  <line x1="1651.5" x2="1651.5" y1="403" y2="391" class="net_30,31,32,21"/>
  <line x1="358" x2="499" y1="380.5" y2="380.5" class="net_23,24,25,22"/>
  <line x1="499" x2="499" y1="380.5" y2="465.5" class="net_23,24,25,22"/>
  <line x1="499" x2="1651.5" y1="465.5" y2="465.5" class="net_23,24,25,22"/>
  <line x1="1651.5" x2="1651.5" y1="465.5" y2="453.5" class="net_23,24,25,22"/>
  <line x1="40" x2="110.8" y1="272" y2="272" class="net_2,3,4,5"/>
  <line x1="358" x2="489" y1="400.5" y2="400.5" class="net_26,27,28,29"/>
  <line x1="489" x2="489" y1="400.5" y2="339" class="net_26,27,28,29"/>
  <line x1="489" x2="514.5" y1="339" y2="339" class="net_26,27,28,29"/>
  <line x1="514.5" x2="514.5" y1="339" y2="327" class="net_26,27,28,29"/>
  <line x1="737" x2="868" y1="423" y2="423" class="net_33,34,35,36"/>
  <line x1="868" x2="868" y1="423" y2="261" class="net_33,34,35,36"/>
  <line x1="868" x2="893.5" y1="261" y2="261" class="net_33,34,35,36"/>
  <line x1="893.5" x2="893.5" y1="261" y2="238" class="net_33,34,35,36"/>
  <line x1="1116" x2="1272.5" y1="251" y2="251" class="net_40,41,42,43"/>
  <line x1="1272.5" x2="1272.5" y1="251" y2="55" class="net_40,41,42,43"/>
</svg>
