<svg xmlns="http://www.w3.org/2000/svg" xmlns:xlink="http://www.w3.org/1999/xlink" xmlns:s="https://github.com/nturley/netlistsvg" width="574" height="506.5">
  <style>svg {
    stroke:#000;
    fill:none;
  }
  text {
    fill:#000;
    stroke:none;
    font-size:10px;
    font-weight: bold;
    font-family: "Courier New", monospace;
  }
  .nodelabel {
    text-anchor: middle;
  }
  .inputPortLabel {
    text-anchor: end;
  }
  .splitjoinBody {
    fill:#000;
  }</style>
  <g s:type="generic" transform="translate(408,241.5)" s:width="30" s:height="40" id="cell_$auto$ff.cc:337:slice$25">
    <text x="15" y="-4" class="nodelabel cell_$auto$ff.cc:337:slice$25" s:attribute="ref">$sdff</text>
    <rect width="30" height="60" s:generic="body" class="cell_$auto$ff.cc:337:slice$25"/>
    <g transform="translate(0,10)" s:x="0" s:y="10" s:pid="in0" id="port_$auto$ff.cc:337:slice$25~CLK">
      <text x="-3" y="-4" class="inputPortLabel cell_$auto$ff.cc:337:slice$25">CLK</text>
    </g>
    <g transform="translate(0,30)" s:x="0" s:y="10" s:pid="in0" id="port_$auto$ff.cc:337:slice$25~D">
      <text x="-3" y="-4" class="inputPortLabel cell_$auto$ff.cc:337:slice$25">D</text>
    </g>
    <g transform="translate(0,50)" s:x="0" s:y="10" s:pid="in0" id="port_$auto$ff.cc:337:slice$25~SRST">
      <text x="-3" y="-4" class="inputPortLabel cell_$auto$ff.cc:337:slice$25">SRST</text>
    </g>
    <g transform="translate(30,10)" s:x="30" s:y="10" s:pid="out0" id="port_$auto$ff.cc:337:slice$25~Q">
      <text x="5" y="-4" style="fill:#000; stroke:none" class="cell_$auto$ff.cc:337:slice$25">Q</text>
    </g>
  </g>
  <g s:type="generic" transform="translate(286,349)" s:width="30" s:height="40" id="cell_fa">
    <text x="15" y="-4" class="nodelabel cell_fa" s:attribute="ref">full_adder</text>
    <rect width="30" height="60" s:generic="body" class="cell_fa"/>
    <g transform="translate(0,10)" s:x="0" s:y="10" s:pid="in0" id="port_fa~a">
      <text x="-3" y="-4" class="inputPortLabel cell_fa">a</text>
    </g>
    <g transform="translate(0,30)" s:x="0" s:y="10" s:pid="in0" id="port_fa~b">
      <text x="-3" y="-4" class="inputPortLabel cell_fa">b</text>
    </g>
    <g transform="translate(0,50)" s:x="0" s:y="10" s:pid="in0" id="port_fa~c_in">
      <text x="-3" y="-4" class="inputPortLabel cell_fa">c_in</text>
    </g>
    <g transform="translate(30,10)" s:x="30" s:y="10" s:pid="out0" id="port_fa~c_out">
      <text x="5" y="-4" style="fill:#000; stroke:none" class="cell_fa">c_out</text>
    </g>
    <g transform="translate(30,30)" s:x="30" s:y="10" s:pid="out0" id="port_fa~s">
      <text x="5" y="-4" style="fill:#000; stroke:none" class="cell_fa">s</text>
    </g>
  </g>
  <g s:type="generic" transform="translate(141,91.5)" s:width="30" s:height="40" id="cell_shr_a">
    <text x="15" y="-4" class="nodelabel cell_shr_a" s:attribute="ref">$paramod\shiftreg\n_regs=s32'00000000000000000000000000001000</text>
    <rect width="30" height="100" s:generic="body" class="cell_shr_a"/>
    <g transform="translate(0,10)" s:x="0" s:y="10" s:pid="in0" id="port_shr_a~clk">
      <text x="-3" y="-4" class="inputPortLabel cell_shr_a">clk</text>
    </g>
    <g transform="translate(0,30)" s:x="0" s:y="10" s:pid="in0" id="port_shr_a~data">
      <text x="-3" y="-4" class="inputPortLabel cell_shr_a">data</text>
    </g>
    <g transform="translate(0,50)" s:x="0" s:y="10" s:pid="in0" id="port_shr_a~enable">
      <text x="-3" y="-4" class="inputPortLabel cell_shr_a">enable</text>
    </g>
    <g transform="translate(0,70)" s:x="0" s:y="10" s:pid="in0" id="port_shr_a~load">
      <text x="-3" y="-4" class="inputPortLabel cell_shr_a">load</text>
    </g>
    <g transform="translate(0,90)" s:x="0" s:y="10" s:pid="in0" id="port_shr_a~reset">
      <text x="-3" y="-4" class="inputPortLabel cell_shr_a">reset</text>
    </g>
    <g transform="translate(30,10)" s:x="30" s:y="10" s:pid="out0" id="port_shr_a~q">
      <text x="5" y="-4" style="fill:#000; stroke:none" class="cell_shr_a">q</text>
    </g>
  </g>
  <g s:type="generic" transform="translate(141,391.5)" s:width="30" s:height="40" id="cell_shr_b">
    <text x="15" y="-4" class="nodelabel cell_shr_b" s:attribute="ref">$paramod\shiftreg\n_regs=s32'00000000000000000000000000001000</text>
    <rect width="30" height="100" s:generic="body" class="cell_shr_b"/>
    <g transform="translate(0,10)" s:x="0" s:y="10" s:pid="in0" id="port_shr_b~clk">
      <text x="-3" y="-4" class="inputPortLabel cell_shr_b">clk</text>
    </g>
    <g transform="translate(0,30)" s:x="0" s:y="10" s:pid="in0" id="port_shr_b~data">
      <text x="-3" y="-4" class="inputPortLabel cell_shr_b">data</text>
    </g>
    <g transform="translate(0,50)" s:x="0" s:y="10" s:pid="in0" id="port_shr_b~enable">
      <text x="-3" y="-4" class="inputPortLabel cell_shr_b">enable</text>
    </g>
    <g transform="translate(0,70)" s:x="0" s:y="10" s:pid="in0" id="port_shr_b~load">
      <text x="-3" y="-4" class="inputPortLabel cell_shr_b">load</text>
    </g>
    <g transform="translate(0,90)" s:x="0" s:y="10" s:pid="in0" id="port_shr_b~reset">
      <text x="-3" y="-4" class="inputPortLabel cell_shr_b">reset</text>
    </g>
    <g transform="translate(30,10)" s:x="30" s:y="10" s:pid="out0" id="port_shr_b~q">
      <text x="5" y="-4" style="fill:#000; stroke:none" class="cell_shr_b">q</text>
    </g>
  </g>
  <g s:type="inputExt" transform="translate(12,22)" s:width="30" s:height="20" id="cell_clk">
    <text x="15" y="-4" class="nodelabel cell_clk" s:attribute="ref">clk</text>
    <s:alias val="$_inputExt_"/>
    <path d="M0,0 L0,20 L15,20 L30,10 L15,0 Z" class="cell_clk"/>
    <g s:x="28" s:y="10" s:pid="Y"/>
  </g>
  <g s:type="inputExt" transform="translate(12,87)" s:width="30" s:height="20" id="cell_input_a">
    <text x="15" y="-4" class="nodelabel cell_input_a" s:attribute="ref">input_a</text>
    <s:alias val="$_inputExt_"/>
    <path d="M0,0 L0,20 L15,20 L30,10 L15,0 Z" class="cell_input_a"/>
    <g s:x="28" s:y="10" s:pid="Y"/>
  </g>
  <g s:type="inputExt" transform="translate(12,387)" s:width="30" s:height="20" id="cell_input_b">
    <text x="15" y="-4" class="nodelabel cell_input_b" s:attribute="ref">input_b</text>
    <s:alias val="$_inputExt_"/>
    <path d="M0,0 L0,20 L15,20 L30,10 L15,0 Z" class="cell_input_b"/>
    <g s:x="28" s:y="10" s:pid="Y"/>
  </g>
  <g s:type="inputExt" transform="translate(12,152)" s:width="30" s:height="20" id="cell_load_a">
    <text x="15" y="-4" class="nodelabel cell_load_a" s:attribute="ref">load_a</text>
    <s:alias val="$_inputExt_"/>
    <path d="M0,0 L0,20 L15,20 L30,10 L15,0 Z" class="cell_load_a"/>
    <g s:x="28" s:y="10" s:pid="Y"/>
  </g>
  <g s:type="inputExt" transform="translate(12,452)" s:width="30" s:height="20" id="cell_load_b">
    <text x="15" y="-4" class="nodelabel cell_load_b" s:attribute="ref">load_b</text>
    <s:alias val="$_inputExt_"/>
    <path d="M0,0 L0,20 L15,20 L30,10 L15,0 Z" class="cell_load_b"/>
    <g s:x="28" s:y="10" s:pid="Y"/>
  </g>
  <g s:type="inputExt" transform="translate(12,282)" s:width="30" s:height="20" id="cell_reset">
    <text x="15" y="-4" class="nodelabel cell_reset" s:attribute="ref">reset</text>
    <s:alias val="$_inputExt_"/>
    <path d="M0,0 L0,20 L15,20 L30,10 L15,0 Z" class="cell_reset"/>
    <g s:x="28" s:y="10" s:pid="Y"/>
  </g>
  <g s:type="outputExt" transform="translate(408,349.5)" s:width="30" s:height="20" id="cell_c_out">
    <text x="15" y="-4" class="nodelabel cell_c_out" s:attribute="ref">c_out</text>
    <s:alias val="$_outputExt_"/>
    <path d="M30,0 L30,20 L15,20 L0,10 L15,0 Z" class="cell_c_out"/>
    <g s:x="0" s:y="10" s:pid="A"/>
  </g>
  <g s:type="outputExt" transform="translate(408,414.5)" s:width="30" s:height="20" id="cell_s">
    <text x="15" y="-4" class="nodelabel cell_s" s:attribute="ref">s</text>
    <s:alias val="$_outputExt_"/>
    <path d="M30,0 L30,20 L15,20 L0,10 L15,0 Z" class="cell_s"/>
    <g s:x="0" s:y="10" s:pid="A"/>
  </g>
  <g s:type="constant" transform="translate(12,217)" s:width="30" s:height="20" id="cell_1">
    <text x="15" y="-4" class="nodelabel cell_1" s:attribute="ref">1</text>
    <s:alias val="$_constant_"/>
    <rect width="30" height="20" class="cell_1"/>
    <g s:x="30" s:y="10" s:pid="Y"/>
  </g>
  <g s:type="split" transform="translate(214,69)" s:width="5" s:height="40" id="cell_$split$,25,27,28,29,30,31,32,33,">
    <rect width="5" height="20" class="splitjoinBody" s:generic="body"/>
    <s:alias val="$_split_"/>
    <g s:x="0" s:y="20" s:pid="in"/>
    <g transform="translate(4,10)" s:x="4" s:y="10" s:pid="out0">
      <text x="5" y="-4">0</text>
    </g>
  </g>
  <g s:type="split" transform="translate(214,369)" s:width="5" s:height="40" id="cell_$split$,26,34,35,36,37,38,39,40,">
    <rect width="5" height="20" class="splitjoinBody" s:generic="body"/>
    <s:alias val="$_split_"/>
    <g s:x="0" s:y="20" s:pid="in"/>
    <g transform="translate(4,10)" s:x="4" s:y="10" s:pid="out0">
      <text x="5" y="-4">0</text>
    </g>
  </g>
  <line x1="40" x2="358" y1="32" y2="32" class="net_2"/>
  <line x1="358" x2="358" y1="32" y2="252" class="net_2"/>
  <line x1="358" x2="408" y1="252" y2="252" class="net_2"/>
  <line x1="40" x2="94" y1="32" y2="32" class="net_2"/>
  <line x1="94" x2="94" y1="32" y2="102" class="net_2"/>
  <circle cx="94" cy="32" r="2" style="fill:#000" class="net_2"/>
  <circle cx="94" cy="102" r="2" style="fill:#000" class="net_2"/>
  <line x1="94" x2="141" y1="102" y2="102" class="net_2"/>
  <line x1="40" x2="94" y1="32" y2="32" class="net_2"/>
  <line x1="94" x2="94" y1="32" y2="402" class="net_2"/>
  <line x1="94" x2="141" y1="402" y2="402" class="net_2"/>
  <line x1="317" x2="358" y1="359.5" y2="359.5" class="net_22"/>
  <line x1="358" x2="358" y1="359.5" y2="272" class="net_22"/>
  <circle cx="358" cy="359.5" r="2" style="fill:#000" class="net_22"/>
  <line x1="358" x2="408" y1="272" y2="272" class="net_22"/>
  <line x1="317" x2="408" y1="359.5" y2="359.5" class="net_22"/>
  <line x1="40" x2="408" y1="292" y2="292" class="net_21"/>
  <line x1="40" x2="84" y1="292" y2="292" class="net_21"/>
  <line x1="84" x2="84" y1="292" y2="182" class="net_21"/>
  <circle cx="84" cy="292" r="2" style="fill:#000" class="net_21"/>
  <line x1="84" x2="141" y1="182" y2="182" class="net_21"/>
  <line x1="40" x2="84" y1="292" y2="292" class="net_21"/>
  <line x1="84" x2="84" y1="292" y2="482" class="net_21"/>
  <line x1="84" x2="141" y1="482" y2="482" class="net_21"/>
  <line x1="219" x2="236" y1="79.5" y2="79.5" class="net_25"/>
  <line x1="236" x2="236" y1="79.5" y2="359.5" class="net_25"/>
  <line x1="236" x2="286" y1="359.5" y2="359.5" class="net_25"/>
  <line x1="219" x2="286" y1="379.5" y2="379.5" class="net_26"/>
  <line x1="439" x2="562" y1="252" y2="252" class="net_24"/>
  <line x1="562" x2="562" y1="252" y2="444.5" class="net_24"/>
  <line x1="562" x2="236" y1="444.5" y2="444.5" class="net_24"/>
  <line x1="236" x2="236" y1="444.5" y2="399.5" class="net_24"/>
  <line x1="236" x2="286" y1="399.5" y2="399.5" class="net_24"/>
  <line x1="40" x2="64" y1="97" y2="97" class="net_3,4,5,6,7,8,9,10"/>
  <line x1="64" x2="64" y1="97" y2="122" class="net_3,4,5,6,7,8,9,10"/>
  <line x1="64" x2="141" y1="122" y2="122" class="net_3,4,5,6,7,8,9,10"/>
  <line x1="42" x2="64" y1="227" y2="227" class="net_41"/>
  <line x1="64" x2="64" y1="227" y2="142" class="net_41"/>
  <circle cx="64" cy="227" r="2" style="fill:#000" class="net_41"/>
  <line x1="64" x2="141" y1="142" y2="142" class="net_41"/>
  <line x1="42" x2="64" y1="227" y2="227" class="net_41"/>
  <line x1="64" x2="64" y1="227" y2="442" class="net_41"/>
  <line x1="64" x2="141" y1="442" y2="442" class="net_41"/>
  <line x1="40" x2="141" y1="162" y2="162" class="net_19"/>
  <line x1="40" x2="74" y1="397" y2="397" class="net_11,12,13,14,15,16,17,18"/>
  <line x1="74" x2="74" y1="397" y2="422" class="net_11,12,13,14,15,16,17,18"/>
  <line x1="74" x2="141" y1="422" y2="422" class="net_11,12,13,14,15,16,17,18"/>
  <line x1="40" x2="141" y1="462" y2="462" class="net_20"/>
  <line x1="317" x2="358" y1="379.5" y2="379.5" class="net_23"/>
  <line x1="358" x2="358" y1="379.5" y2="424.5" class="net_23"/>
  <line x1="358" x2="408" y1="424.5" y2="424.5" class="net_23"/>
  <line x1="172" x2="214.5" y1="102" y2="102" class="net_25,27,28,29,30,31,32,33"/>
  <line x1="214.5" x2="214.5" y1="102" y2="90" class="net_25,27,28,29,30,31,32,33"/>
  <line x1="172" x2="214.5" y1="402" y2="402" class="net_26,34,35,36,37,38,39,40"/>
  <line x1="214.5" x2="214.5" y1="402" y2="390" class="net_26,34,35,36,37,38,39,40"/>
</svg>
